<svg viewBox="0 0 24 24" xmlns="http://www.w3.org/2000/svg"><g fill="none" stroke="#000" stroke-miterlimit="10" stroke-width="1.91"><path d="m7.46 20.35a2.16 2.16 0 0 1 -4.31 0c0-1.44 2.15-3.59 2.15-3.59s2.16 2.15 2.16 3.59z"/><path d="m.52 22.5h9.57"/><path d="m2.43 1.46h5.74a0 0 0 0 1 0 0v10.54a2.87 2.87 0 0 1 -2.87 2.85 2.87 2.87 0 0 1 -2.87-2.85v-10.54a0 0 0 0 1 0 0z"/><path d="m.52 1.46h9.57"/><path d="m2.43 6.24h5.74"/><path d="m8.17 4.33h15.31"/><path d="m19.65.5v22"/><path d="m15.83 22.5h7.65"/></g></svg>