<svg viewBox="0 0 24 24" xmlns="http://www.w3.org/2000/svg"><g fill="none" stroke="#000" stroke-miterlimit="10" stroke-width="1.91"><path d="m2.45 18.68h4.78a0 0 0 0 1 0 0v2.86a1 1 0 0 1 -1 1h-2.82a1 1 0 0 1 -1-1v-2.86a0 0 0 0 1 .04 0z"/><path d="m16.77 18.68h4.77a0 0 0 0 1 0 0v2.86a1 1 0 0 1 -1 1h-2.81a1 1 0 0 1 -1-1v-2.86a0 0 0 0 1 .04 0z"/><path d="m5.32 11h13.36a3.82 3.82 0 0 1 3.82 3.82v3.82a0 0 0 0 1 0 0h-21a0 0 0 0 1 0 0v-3.78a3.82 3.82 0 0 1 3.82-3.86z"/><path d="m16.29 4.36h-8.58a1.91 1.91 0 0 0 -1.83 1.39l-1.52 5.3h15.28l-1.52-5.3a1.91 1.91 0 0 0 -1.83-1.39z"/></g><circle cx="4.84" cy="15.34" r="1.43"/><circle cx="19.16" cy="15.34" r="1.43"/><g fill="none" stroke="#000" stroke-miterlimit="10" stroke-width="1.91"><path d="m22.5 9.14h-3.41"/><path d="m4.91 9.14h-3.41"/><path d="m14.86 4.36h-5.72l.95-2.86h3.82z"/></g></svg>